<svg id="Layer_1" viewBox="0 0 24 24" xmlns="http://www.w3.org/2000/svg" data-name="Layer 1"><path d="m3.166 2.914c-1.377 0-2.166.796-2.166 2.185s.789 2.185 2.166 2.185 2.165-.796 2.165-2.185-.789-2.185-2.165-2.185z" opacity=".5"/><path d="m22 6.099h-13.255c-.553 0-1-.448-1-1s.447-1 1-1h13.255c.553 0 1 .448 1 1s-.447 1-1 1z"/><path d="m3.166 9.815c-1.377 0-2.166.796-2.166 2.185s.789 2.185 2.166 2.185 2.165-.796 2.165-2.185-.789-2.185-2.165-2.185z" opacity=".5"/><path d="m22 13h-13.255c-.553 0-1-.448-1-1s.447-1 1-1h13.255c.553 0 1 .448 1 1s-.447 1-1 1z"/><path d="m3.166 16.716c-1.377 0-2.166.796-2.166 2.185s.789 2.185 2.166 2.185 2.165-.796 2.165-2.185-.789-2.185-2.165-2.185z" opacity=".5"/><path d="m22 19.901h-13.255c-.553 0-1-.448-1-1s.447-1 1-1h13.255c.553 0 1 .448 1 1s-.447 1-1 1z"/></svg>